Patient4_TMGait_0pt2_01_right_18_GRF.mot
version=1
nRows=45
nColumns=19
inDegrees=no
endheader
time	F1x	F1y	F1z	M1x	M1y	M1z	F2x	F2y	F2z	M2x	M2y	M2z	EC1x	EC1y	EC1z	EC2x	EC2y	EC2z
40.18	-20.1403	618.2816	39.132	-219.4471	-46.7692	612.4222	12.4569	128.3896	-11.1403	46.2317	4.9984	102.9152	-0.0592	0.0182	-0.0073	-0.0462	0.0165	0.9585
40.2041	-17.3152	646.3344	41.2956	-230.0687	-47.4092	635.9443	10.0639	112.1048	-9.8286	40.3419	4.7838	90.0773	-0.0592	0.0182	-0.0073	-0.0462	0.0165	0.9585
40.2281	-14.4265	679.9627	43.6793	-242.7314	-48.1498	664.1465	7.4633	94.0928	-8.4465	33.8385	4.5654	75.7823	-0.0592	0.0182	-0.0073	-0.0462	0.0165	0.9585
40.2522	-11.8122	717.1037	46.1454	-256.6364	-48.983	695.3078	4.8524	75.7358	-7.0768	27.2217	4.3411	61.1304	-0.0592	0.0182	-0.0073	-0.0462	0.0165	0.9585
40.2763	-9.7732	755.0428	48.5788	-270.7523	-49.9098	727.1278	2.4212	58.2083	-5.7612	20.9148	4.0836	47.0783	-0.0592	0.0182	-0.0073	-0.0462	0.0165	0.9585
40.3004	-8.4836	790.7244	50.8659	-283.9372	-50.893	756.944	0.36568	42.3623	-4.5104	15.2229	3.7389	34.3313	-0.0592	0.0182	-0.0073	-0.0462	0.0165	0.9585
40.3244	-7.9436	821.0383	52.8958	-295.0463	-51.8452	781.9685	-1.1221	28.759	-3.3275	10.344	3.2474	23.3601	-0.0592	0.0182	-0.0073	-0.0462	0.0165	0.9585
40.3485	-8.0057	843.1461	54.5749	-303.0511	-52.6542	799.5916	-1.9225	17.7265	-2.241	6.3934	2.5955	14.4435	-0.0592	0.0182	-0.0073	-0.0462	0.0165	0.9585
40.3726	-8.423	854.9675	55.8246	-307.2146	-53.1951	807.8527	-2.1024	9.3797	-1.311	3.4098	1.8605	7.6746	-0.0592	0.0182	-0.0073	-0.0462	0.0165	0.9585
40.3966	-8.9107	855.7744	56.5695	-307.2992	-53.3323	806.0158	-1.9015	3.5485	-0.58989	1.3298	1.1713	2.9103	-0.0592	0.0182	-0.0073	-0.0462	0.0165	0.9585
40.4207	-9.2002	846.5638	56.7613	-303.6942	-52.9556	794.9253	-1.52	-0.23445	-0.07703	-0.016387	0.59746	-0.23422	-0.0592	0.0182	-0.0073	-0.0462	0.0165	0.9585
40.4448	-9.0935	829.9158	56.4177	-297.3592	-52.0274	776.8806	-1.0864	-2.5586	0.26032	-0.84205	0.15613	-2.2462	-0.0592	0.0182	-0.0073	-0.0462	0.0165	0.9585
40.4689	-8.466	809.4304	55.607	-289.6222	-50.5713	755.1106	-0.6738	-3.9989	0.46406	-1.3536	-0.16175	-3.5935	-0.0592	0.0182	-0.0073	-0.0462	0.0165	0.9585
40.4929	-7.2384	788.939	54.4158	-281.9002	-48.6312	733.048	-0.31533	-5.0251	0.57523	-1.7186	-0.38088	-4.6516	-0.0592	0.0182	-0.0073	-0.0462	0.0165	0.9585
40.517	-5.3837	771.6462	52.9449	-275.3831	-46.2743	713.5655	-0.025137	-5.9421	0.62957	-2.0466	-0.52966	-5.6542	-0.0592	0.0182	-0.0073	-0.0462	0.0165	0.9585
40.5411	-2.9325	759.4893	51.3042	-270.7954	-43.5928	698.4074	0.19007	-6.8504	0.65263	-2.3763	-0.62921	-6.6503	-0.0592	0.0182	-0.0073	-0.0462	0.0165	0.9585
40.5651	0.047368	752.8819	49.6037	-268.2989	-40.6938	687.9601	0.32341	-7.6138	0.65614	-2.6624	-0.68797	-7.469	-0.0592	0.0182	-0.0073	-0.0462	0.0165	0.9585
40.5892	3.4713	750.8579	47.9516	-267.5411	-37.6889	681.3949	0.36099	-7.823	0.63801	-2.764	-0.69562	-7.6747	-0.0592	0.0182	-0.0073	-0.0462	0.0165	0.9585
40.6133	7.2272	751.4692	46.468	-267.7979	-34.7108	677.0459	0.27989	-6.7746	0.58002	-2.4354	-0.6196	-6.5428	-0.0592	0.0182	-0.0073	-0.0462	0.0165	0.9585
40.6374	11.1687	752.2957	45.2837	-268.1594	-31.9145	672.8754	0.044128	-3.467	0.44647	-1.3234	-0.40486	-3.0601	-0.0592	0.0182	-0.0073	-0.0462	0.0165	0.9585
40.6614	15.1142	750.9333	44.5113	-267.7138	-29.4553	666.9075	-0.39464	3.3574	0.1866	1.0203	0.022549	4.0325	-0.0592	0.0182	-0.0073	-0.0462	0.0165	0.9585
40.6855	18.8336	745.3401	44.2003	-265.6822	-27.4621	657.5313	-1.0869	15.0787	-0.25527	5.0938	0.7433	16.1066	-0.0592	0.0182	-0.0073	-0.0462	0.0165	0.9585
40.7096	22.0466	734.0559	44.3056	-261.5089	-26.0108	643.6765	-2.0698	32.943	-0.92578	11.3545	1.8263	34.3758	-0.0592	0.0182	-0.0073	-0.0462	0.0165	0.9585
40.7336	24.4636	716.3147	44.6708	-254.9138	-25.0941	624.8812	-3.4261	57.7143	-1.8788	20.0942	3.3629	59.5359	-0.0592	0.0182	-0.0073	-0.0462	0.0165	0.9585
40.7577	25.8456	692.0132	45.0464	-245.8786	-24.6143	601.2215	-5.4028	89.3998	-3.3162	31.3283	5.6463	91.513	-0.0592	0.0182	-0.0073	-0.0462	0.0165	0.9585
40.7818	26.0559	661.5625	45.1587	-234.5854	-24.4208	573.1306	-8.087	126.9288	-5.5049	44.6751	8.9695	129.1592	-0.0592	0.0182	-0.0073	-0.0462	0.0165	0.9585
40.8059	25.126	625.8747	44.7826	-221.403	-24.3415	541.3503	-11.2484	168.1432	-8.5131	59.3602	13.3003	170.2467	-0.0592	0.0182	-0.0073	-0.0462	0.0165	0.9585
40.8299	23.2839	586.4808	43.7896	-206.9255	-24.2034	507.036	-14.5472	210.3108	-12.078	74.4129	18.2345	212.0192	-0.0592	0.0182	-0.0073	-0.0462	0.0165	0.9585
40.854	20.9075	545.4964	42.1766	-191.9521	-23.8677	471.7729	-17.6788	251.0699	-15.7239	89.004	23.1786	252.1321	-0.0592	0.0182	-0.0073	-0.0462	0.0165	0.9585
40.8781	18.4051	505.2116	40.0533	-177.3302	-23.2618	437.2813	-20.4318	289.0648	-19.0592	102.6586	27.6662	289.2544	-0.0592	0.0182	-0.0073	-0.0462	0.0165	0.9585
40.9021	16.0929	467.3853	37.5863	-163.6995	-22.3831	404.8711	-22.7082	323.8199	-21.8999	115.1995	31.4826	322.9314	-0.0592	0.0182	-0.0073	-0.0462	0.0165	0.9585
40.9262	14.136	432.8121	34.9551	-151.3365	-21.2884	375.1067	-24.5104	355.3549	-24.222	126.611	34.6117	353.2008	-0.0592	0.0182	-0.0073	-0.0462	0.0165	0.9585
40.9503	12.5662	401.3953	32.315	-140.1857	-20.0636	347.8605	-25.8958	383.9436	-26.1084	136.9638	37.1603	380.3245	-0.0592	0.0182	-0.0073	-0.0462	0.0165	0.9585
40.9744	11.3458	372.5153	29.7738	-129.997	-18.7884	322.6116	-26.9291	410.1058	-27.6845	146.426	39.2795	404.7626	-0.0592	0.0182	-0.0073	-0.0462	0.0165	0.9585
40.9984	10.4336	345.3689	27.3793	-120.4569	-17.4994	298.7139	-27.6495	434.6655	-29.0425	155.2972	41.0817	427.2244	-0.0592	0.0182	-0.0073	-0.0462	0.0165	0.9585
41.0225	9.8246	319.1632	25.1094	-111.2658	-16.1645	275.5469	-28.0544	458.6012	-30.2118	163.9541	42.6065	448.5366	-0.0592	0.0182	-0.0073	-0.0462	0.0165	0.9585
41.0466	9.5614	293.2327	22.8947	-102.1783	-14.7016	252.6046	-28.1068	482.7172	-31.1674	172.7249	43.8234	469.3648	-0.0592	0.0182	-0.0073	-0.0462	0.0165	0.9585
41.0706	9.7297	267.1023	20.6579	-93.0242	-13.0141	229.538	-27.7478	507.3968	-31.8235	181.7922	44.6299	490.0057	-0.0592	0.0182	-0.0073	-0.0462	0.0165	0.9585
41.0947	10.443	240.5211	18.3353	-83.7161	-11.0148	206.1755	-26.9184	532.5387	-32.0472	191.1583	44.8678	510.3483	-0.0592	0.0182	-0.0073	-0.0462	0.0165	0.9585
41.1188	11.8017	213.4717	15.8883	-74.2511	-8.6495	182.53	-25.5911	557.66	-31.7167	200.6682	44.3889	529.9948	-0.0592	0.0182	-0.0073	-0.0462	0.0165	0.9585
41.1429	13.8273	186.1644	13.3181	-64.7059	-5.9243	158.797	-23.813	582.086	-30.7944	210.0681	43.1461	548.4455	-0.0592	0.0182	-0.0073	-0.0462	0.0165	0.9585
41.1669	16.3968	159.0048	10.6729	-55.225	-2.9305	135.324	-21.7226	605.1805	-29.3832	219.0869	41.2589	565.3031	-0.0592	0.0182	-0.0073	-0.0462	0.0165	0.9585
41.191	19.2052	132.5341	8.0543	-45.9977	0.13936	112.5639	-19.5304	626.5826	-27.7306	227.5282	39.0113	580.4705	-0.0592	0.0182	-0.0073	-0.0462	0.0165	0.9585
41.2151	21.788	107.3767	5.5977	-37.2423	3.0155	91.0347	-17.4862	646.2769	-26.1774	235.3088	36.7927	594.1871	-0.0592	0.0182	-0.0073	-0.0462	0.0165	0.9585
41.2391	23.6081	84.192	3.4381	-29.1869	5.4041	71.2742	-15.8176	664.503	-25.0704	242.446	34.997	606.9017	-0.0592	0.0182	-0.0073	-0.0462	0.0165	0.9585
